<svg width="14" height="14" viewBox="0 0 14 14" fill="none" xmlns="http://www.w3.org/2000/svg">
<g id="Add Love">
<path id="Vector" d="M10.3538 1.29113C9.12801 1.29113 7.99379 1.84402 7.24676 2.7882C6.39976 1.72119 5.10285 1.20827 3.8657 1.29797C2.68637 1.37781 1.6998 2.03351 1.15894 3.09691C0.637843 4.12141 0.659307 5.33513 1.1923 6.3217C0.627314 6.93973 0.279297 7.75936 0.279297 8.66082C0.279297 10.5765 1.83789 12.1351 3.75359 12.1351C4.50883 12.1351 5.20637 11.8903 5.77689 11.4794L6.67965 12.4619C6.82375 12.6199 7.02937 12.7112 7.2432 12.7121C7.2443 12.7121 7.24512 12.7121 7.24621 12.7121C7.46059 12.7121 7.66703 12.6216 7.81414 12.4627L12.8128 7.02128C13.7171 6.03527 13.9676 4.64374 13.4666 3.38976C12.9654 2.13578 11.8391 1.29113 10.3538 1.29113ZM0.839297 8.66082C0.839297 7.0541 2.1466 5.74679 3.75359 5.74679C5.36031 5.74679 6.66762 7.0541 6.66762 8.66082C6.66762 10.2678 5.36031 11.5751 3.75359 11.5751C2.1466 11.5751 0.839297 10.2678 0.839297 8.66082ZM12.4002 6.64258L7.40234 12.0832C7.36133 12.1277 7.30582 12.1521 7.24621 12.1521C7.1877 12.1652 7.13328 12.128 7.09281 12.0837L6.20619 11.1189C6.83681 10.4896 7.22762 9.62004 7.22762 8.66082C7.22762 6.74512 5.6693 5.18679 3.75359 5.18679C2.94688 5.18679 2.20539 5.46557 1.61504 5.92856C1.23414 5.12691 1.24289 4.16759 1.65824 3.35094C2.1075 2.46746 2.9259 1.92305 3.90508 1.8566C5.1023 1.769 6.31807 2.33876 7.0116 3.42121C7.06301 3.50133 7.15188 3.55 7.24731 3.55C7.34301 3.55 7.43215 3.50105 7.48328 3.42066C8.11 2.43793 9.18325 1.85113 10.3538 1.85113C11.5606 1.84257 12.5205 2.53086 12.9466 3.59758C13.3668 4.64976 13.1574 5.81679 12.4002 6.64258Z" fill="#E8E0D9"/>
<path id="Vector_2" d="M5.07148 8.32531H4.03351V7.34285C4.03351 7.18809 3.90828 7.06285 3.75351 7.06285C3.59875 7.06285 3.47351 7.18809 3.47351 7.34285V8.32531H2.43527C2.28051 8.32531 2.15527 8.45055 2.15527 8.60531C2.15527 8.76008 2.28051 8.88531 2.43527 8.88531H3.47352V9.97906C3.47352 10.1338 3.59875 10.2591 3.75352 10.2591C3.90828 10.2591 4.03352 10.1338 4.03352 9.97906V8.88531H5.07148C5.22625 8.88531 5.35149 8.76008 5.35149 8.60531C5.35149 8.45055 5.22625 8.32531 5.07148 8.32531Z" fill="#E8E0D9"/>
</g>
</svg>
