<svg width="31" height="31" viewBox="0 0 31 31" fill="none" xmlns="http://www.w3.org/2000/svg">
<g id="album_svgrepo.com" clip-path="url(#clip0_84_15796)">
<g id="Group">
<path id="Vector" d="M0.272461 3.25299H15.2725V3.64299C17.5525 3.04299 20.0275 3.11799 22.4125 4.00299C28.6225 6.28299 31.8175 13.183 29.5375 19.393C27.3925 25.228 21.1675 28.393 15.2725 26.863V27.253H0.272461V3.25299ZM13.7725 25.753V4.75299H1.77246V25.753H13.7725ZM21.9475 13.423C20.9275 11.398 18.4675 10.573 16.4425 11.578C15.9775 11.803 15.5875 12.103 15.2725 12.463V18.058C16.4725 19.348 18.4375 19.753 20.1025 18.928C22.1275 17.908 22.9525 15.448 21.9475 13.423ZM17.8225 14.653C18.1525 14.413 18.6175 14.473 18.8725 14.803C19.1125 15.133 19.0525 15.598 18.7225 15.853C18.3925 16.108 17.9275 16.033 17.6725 15.703C17.4325 15.388 17.4925 14.908 17.8225 14.653ZM22.3375 9.14799C20.5825 7.97799 18.4975 7.66299 16.5925 8.11299C16.1875 8.20299 15.9325 8.62299 16.0375 9.02799C16.1425 9.43299 16.5475 9.67299 16.9675 9.56799L17.2225 9.50799C18.6625 9.25299 20.1925 9.52299 21.5125 10.393C22.2175 10.873 22.8025 11.473 23.2225 12.163C23.4475 12.508 23.8975 12.613 24.2575 12.403C24.6025 12.178 24.7075 11.713 24.4975 11.368C23.9575 10.513 23.2375 9.74799 22.3375 9.14799ZM23.9125 6.79299C21.6925 5.30799 19.0975 4.81299 16.6525 5.20299C16.2325 5.27799 15.9475 5.68299 16.0375 6.10299C16.1125 6.50799 16.5175 6.77799 16.9525 6.68799L17.2825 6.62799C19.2475 6.40299 21.3025 6.83799 23.0875 8.03799C24.1525 8.74299 24.9925 9.64299 25.6375 10.648C25.8475 11.008 26.3125 11.113 26.6575 10.888C27.0175 10.678 27.1225 10.213 26.8975 9.85299C26.1625 8.66799 25.1575 7.61799 23.9125 6.79299Z" fill="#E8E0D9"/>
</g>
</g>
<defs>
<clipPath id="clip0_84_15796">
<rect width="30" height="30" fill="white" transform="matrix(1 0 0 -1 0.272461 30.253)"/>
</clipPath>
</defs>
</svg>
