<svg width="1491" height="74" viewBox="0 0 1491 74" fill="none" xmlns="http://www.w3.org/2000/svg">
<path d="M685.403 44.848C686.279 44.848 687.059 45.0473 687.743 45.446C688.428 45.836 688.957 46.382 689.329 47.084C689.711 47.7773 689.901 48.5703 689.901 49.463C689.901 50.3557 689.711 51.153 689.329 51.855C688.957 52.5483 688.428 53.0943 687.743 53.493C687.059 53.883 686.279 54.078 685.403 54.078C684.519 54.078 683.735 53.883 683.05 53.493C682.366 53.0943 681.833 52.5483 681.451 51.855C681.07 51.153 680.879 50.3557 680.879 49.463C680.879 48.5703 681.07 47.7773 681.451 47.084C681.833 46.382 682.366 45.836 683.05 45.446C683.735 45.0473 684.519 44.848 685.403 44.848ZM685.403 45.368C684.597 45.368 683.895 45.5413 683.297 45.888C682.699 46.226 682.24 46.7027 681.919 47.318C681.599 47.9333 681.438 48.6483 681.438 49.463C681.438 50.269 681.599 50.984 681.919 51.608C682.24 52.2233 682.699 52.7043 683.297 53.051C683.895 53.3977 684.597 53.571 685.403 53.571C686.201 53.571 686.894 53.3977 687.483 53.051C688.081 52.7043 688.541 52.2233 688.861 51.608C689.182 50.984 689.342 50.269 689.342 49.463C689.342 48.6483 689.182 47.9333 688.861 47.318C688.541 46.7027 688.081 46.226 687.483 45.888C686.894 45.5413 686.201 45.368 685.403 45.368ZM685.377 46.447C684.857 46.447 684.381 46.5683 683.947 46.811C683.523 47.0537 683.185 47.4047 682.933 47.864C682.682 48.3147 682.556 48.8433 682.556 49.45C682.556 50.0567 682.682 50.5897 682.933 51.049C683.185 51.4997 683.523 51.8507 683.947 52.102C684.381 52.3447 684.857 52.466 685.377 52.466C686.027 52.466 686.591 52.2927 687.067 51.946C687.544 51.5907 687.869 51.1183 688.042 50.529H686.95C686.69 51.2483 686.166 51.608 685.377 51.608C684.857 51.608 684.433 51.4217 684.103 51.049C683.774 50.6763 683.609 50.1477 683.609 49.463C683.609 48.7697 683.774 48.2367 684.103 47.864C684.433 47.4913 684.857 47.305 685.377 47.305C685.759 47.305 686.088 47.4003 686.365 47.591C686.643 47.773 686.838 48.0373 686.95 48.384H688.042C687.878 47.7687 687.557 47.292 687.08 46.954C686.604 46.616 686.036 46.447 685.377 46.447ZM694.667 53.051C695.768 52.167 696.63 51.4433 697.254 50.88C697.878 50.308 698.402 49.7143 698.827 49.099C699.26 48.475 699.477 47.864 699.477 47.266C699.477 46.7027 699.338 46.2607 699.061 45.94C698.792 45.6107 698.355 45.446 697.748 45.446C697.159 45.446 696.699 45.6323 696.37 46.005C696.049 46.369 695.876 46.8587 695.85 47.474H694.706C694.741 46.5033 695.035 45.7537 695.59 45.225C696.145 44.6963 696.86 44.432 697.735 44.432C698.628 44.432 699.334 44.679 699.854 45.173C700.383 45.667 700.647 46.3473 700.647 47.214C700.647 47.9333 700.43 48.6353 699.997 49.32C699.572 49.996 699.087 50.594 698.541 51.114C697.995 51.6253 697.297 52.2233 696.448 52.908H700.92V53.896H694.667V53.051ZM702.287 49.203C702.287 47.7123 702.53 46.551 703.015 45.719C703.501 44.8783 704.35 44.458 705.563 44.458C706.768 44.458 707.613 44.8783 708.098 45.719C708.584 46.551 708.826 47.7123 708.826 49.203C708.826 50.7197 708.584 51.8983 708.098 52.739C707.613 53.5797 706.768 54 705.563 54C704.35 54 703.501 53.5797 703.015 52.739C702.53 51.8983 702.287 50.7197 702.287 49.203ZM707.656 49.203C707.656 48.449 707.604 47.812 707.5 47.292C707.405 46.7633 707.201 46.3387 706.889 46.018C706.586 45.6973 706.144 45.537 705.563 45.537C704.974 45.537 704.523 45.6973 704.211 46.018C703.908 46.3387 703.704 46.7633 703.6 47.292C703.505 47.812 703.457 48.449 703.457 49.203C703.457 49.983 703.505 50.6373 703.6 51.166C703.704 51.6947 703.908 52.1193 704.211 52.44C704.523 52.7607 704.974 52.921 705.563 52.921C706.144 52.921 706.586 52.7607 706.889 52.44C707.201 52.1193 707.405 51.6947 707.5 51.166C707.604 50.6373 707.656 49.983 707.656 49.203ZM710.308 53.051C711.408 52.167 712.271 51.4433 712.895 50.88C713.519 50.308 714.043 49.7143 714.468 49.099C714.901 48.475 715.118 47.864 715.118 47.266C715.118 46.7027 714.979 46.2607 714.702 45.94C714.433 45.6107 713.995 45.446 713.389 45.446C712.799 45.446 712.34 45.6323 712.011 46.005C711.69 46.369 711.517 46.8587 711.491 47.474H710.347C710.381 46.5033 710.676 45.7537 711.231 45.225C711.785 44.6963 712.5 44.432 713.376 44.432C714.268 44.432 714.975 44.679 715.495 45.173C716.023 45.667 716.288 46.3473 716.288 47.214C716.288 47.9333 716.071 48.6353 715.638 49.32C715.213 49.996 714.728 50.594 714.182 51.114C713.636 51.6253 712.938 52.2233 712.089 52.908H716.561V53.896H710.308V53.051ZM717.902 46.967C717.963 46.1697 718.27 45.5457 718.825 45.095C719.38 44.6443 720.099 44.419 720.983 44.419C721.572 44.419 722.079 44.5273 722.504 44.744C722.937 44.952 723.262 45.238 723.479 45.602C723.704 45.966 723.817 46.3777 723.817 46.837C723.817 47.3743 723.661 47.838 723.349 48.228C723.046 48.618 722.647 48.8693 722.153 48.982V49.047C722.716 49.1857 723.163 49.4587 723.492 49.866C723.821 50.2733 723.986 50.8063 723.986 51.465C723.986 51.959 723.873 52.4053 723.648 52.804C723.423 53.194 723.085 53.5017 722.634 53.727C722.183 53.9523 721.642 54.065 721.009 54.065C720.09 54.065 719.336 53.8267 718.747 53.35C718.158 52.8647 717.828 52.18 717.759 51.296H718.903C718.964 51.816 719.176 52.2407 719.54 52.57C719.904 52.8993 720.389 53.064 720.996 53.064C721.603 53.064 722.062 52.908 722.374 52.596C722.695 52.2753 722.855 51.8637 722.855 51.361C722.855 50.711 722.638 50.243 722.205 49.957C721.772 49.671 721.117 49.528 720.242 49.528H719.943V48.54H720.255C721.052 48.5313 721.655 48.4013 722.062 48.15C722.469 47.89 722.673 47.4913 722.673 46.954C722.673 46.4947 722.521 46.1263 722.218 45.849C721.923 45.5717 721.499 45.433 720.944 45.433C720.407 45.433 719.973 45.5717 719.644 45.849C719.315 46.1263 719.12 46.499 719.059 46.967H717.902ZM734.6 51.985H730.648L729.92 54H728.672L731.948 44.991H733.313L736.576 54H735.328L734.6 51.985ZM734.262 51.023L732.624 46.447L730.986 51.023H734.262ZM739.187 44.38V54H738.004V44.38H739.187ZM742.386 44.38V54H741.203V44.38H742.386ZM749.051 48.033C749.259 47.6257 749.554 47.3093 749.935 47.084C750.325 46.8587 750.798 46.746 751.352 46.746V47.968H751.04C749.714 47.968 749.051 48.6873 749.051 50.126V54H747.868V46.876H749.051V48.033ZM753.329 45.719C753.103 45.719 752.913 45.641 752.757 45.485C752.601 45.329 752.523 45.1383 752.523 44.913C752.523 44.6877 752.601 44.497 752.757 44.341C752.913 44.185 753.103 44.107 753.329 44.107C753.545 44.107 753.727 44.185 753.875 44.341C754.031 44.497 754.109 44.6877 754.109 44.913C754.109 45.1383 754.031 45.329 753.875 45.485C753.727 45.641 753.545 45.719 753.329 45.719ZM753.901 46.876V54H752.718V46.876H753.901ZM758.855 46.759C759.47 46.759 760.008 46.8933 760.467 47.162C760.935 47.4307 761.282 47.7687 761.507 48.176V46.876H762.703V54.156C762.703 54.806 762.564 55.3823 762.287 55.885C762.01 56.3963 761.611 56.795 761.091 57.081C760.58 57.367 759.982 57.51 759.297 57.51C758.361 57.51 757.581 57.289 756.957 56.847C756.333 56.405 755.965 55.8027 755.852 55.04H757.022C757.152 55.4733 757.421 55.82 757.828 56.08C758.235 56.3487 758.725 56.483 759.297 56.483C759.947 56.483 760.476 56.2793 760.883 55.872C761.299 55.4647 761.507 54.8927 761.507 54.156V52.661C761.273 53.077 760.926 53.4237 760.467 53.701C760.008 53.9783 759.47 54.117 758.855 54.117C758.222 54.117 757.646 53.961 757.126 53.649C756.615 53.337 756.212 52.8993 755.917 52.336C755.622 51.7727 755.475 51.1313 755.475 50.412C755.475 49.684 755.622 49.047 755.917 48.501C756.212 47.9463 756.615 47.5173 757.126 47.214C757.646 46.9107 758.222 46.759 758.855 46.759ZM761.507 50.425C761.507 49.8877 761.399 49.4197 761.182 49.021C760.965 48.6223 760.671 48.319 760.298 48.111C759.934 47.8943 759.531 47.786 759.089 47.786C758.647 47.786 758.244 47.89 757.88 48.098C757.516 48.306 757.226 48.6093 757.009 49.008C756.792 49.4067 756.684 49.8747 756.684 50.412C756.684 50.958 756.792 51.4347 757.009 51.842C757.226 52.2407 757.516 52.5483 757.88 52.765C758.244 52.973 758.647 53.077 759.089 53.077C759.531 53.077 759.934 52.973 760.298 52.765C760.671 52.5483 760.965 52.2407 761.182 51.842C761.399 51.4347 761.507 50.9623 761.507 50.425ZM768.238 46.746C768.776 46.746 769.261 46.863 769.694 47.097C770.128 47.3223 770.466 47.6647 770.708 48.124C770.96 48.5833 771.085 49.1423 771.085 49.801V54H769.915V49.97C769.915 49.2593 769.738 48.7177 769.382 48.345C769.027 47.9637 768.542 47.773 767.926 47.773C767.302 47.773 766.804 47.968 766.431 48.358C766.067 48.748 765.885 49.3157 765.885 50.061V54H764.702V44.38H765.885V47.89C766.119 47.526 766.44 47.2443 766.847 47.045C767.263 46.8457 767.727 46.746 768.238 46.746ZM774.461 47.851V52.05C774.461 52.3967 774.534 52.6437 774.682 52.791C774.829 52.9297 775.085 52.999 775.449 52.999H776.32V54H775.254C774.595 54 774.101 53.8483 773.772 53.545C773.442 53.2417 773.278 52.7433 773.278 52.05V47.851H772.355V46.876H773.278V45.082H774.461V46.876H776.32V47.851H774.461ZM780.275 54.117C779.729 54.117 779.239 54.026 778.806 53.844C778.373 53.6533 778.03 53.3933 777.779 53.064C777.528 52.726 777.389 52.3403 777.363 51.907H778.585C778.62 52.2623 778.784 52.5527 779.079 52.778C779.382 53.0033 779.777 53.116 780.262 53.116C780.713 53.116 781.068 53.0163 781.328 52.817C781.588 52.6177 781.718 52.3663 781.718 52.063C781.718 51.751 781.579 51.5213 781.302 51.374C781.025 51.218 780.596 51.0663 780.015 50.919C779.486 50.7803 779.053 50.6417 778.715 50.503C778.386 50.3557 778.1 50.1433 777.857 49.866C777.623 49.58 777.506 49.2073 777.506 48.748C777.506 48.384 777.614 48.0503 777.831 47.747C778.048 47.4437 778.355 47.2053 778.754 47.032C779.153 46.85 779.608 46.759 780.119 46.759C780.908 46.759 781.545 46.9583 782.03 47.357C782.515 47.7557 782.775 48.3017 782.81 48.995H781.627C781.601 48.6223 781.449 48.3233 781.172 48.098C780.903 47.8727 780.539 47.76 780.08 47.76C779.655 47.76 779.317 47.851 779.066 48.033C778.815 48.215 778.689 48.4533 778.689 48.748C778.689 48.982 778.763 49.177 778.91 49.333C779.066 49.4803 779.257 49.6017 779.482 49.697C779.716 49.7837 780.037 49.8833 780.444 49.996C780.955 50.1347 781.371 50.2733 781.692 50.412C782.013 50.542 782.286 50.7413 782.511 51.01C782.745 51.2787 782.866 51.6297 782.875 52.063C782.875 52.453 782.767 52.804 782.55 53.116C782.333 53.428 782.026 53.675 781.627 53.857C781.237 54.0303 780.786 54.117 780.275 54.117ZM789.194 48.033C789.402 47.6257 789.696 47.3093 790.078 47.084C790.468 46.8587 790.94 46.746 791.495 46.746V47.968H791.183C789.857 47.968 789.194 48.6873 789.194 50.126V54H788.011V46.876H789.194V48.033ZM799.36 50.165C799.36 50.3903 799.347 50.6287 799.321 50.88H793.627C793.671 51.582 793.909 52.1323 794.342 52.531C794.784 52.921 795.317 53.116 795.941 53.116C796.453 53.116 796.877 52.999 797.215 52.765C797.562 52.5223 797.805 52.2017 797.943 51.803H799.217C799.027 52.4877 798.645 53.0467 798.073 53.48C797.501 53.9047 796.791 54.117 795.941 54.117C795.265 54.117 794.659 53.9653 794.121 53.662C793.593 53.3587 793.177 52.9297 792.873 52.375C792.57 51.8117 792.418 51.1617 792.418 50.425C792.418 49.6883 792.566 49.0427 792.86 48.488C793.155 47.9333 793.567 47.5087 794.095 47.214C794.633 46.9107 795.248 46.759 795.941 46.759C796.617 46.759 797.215 46.9063 797.735 47.201C798.255 47.4957 798.654 47.903 798.931 48.423C799.217 48.9343 799.36 49.515 799.36 50.165ZM798.138 49.918C798.138 49.4673 798.039 49.0817 797.839 48.761C797.64 48.4317 797.367 48.1847 797.02 48.02C796.682 47.8467 796.305 47.76 795.889 47.76C795.291 47.76 794.78 47.9507 794.355 48.332C793.939 48.7133 793.701 49.242 793.64 49.918H798.138ZM803.444 54.117C802.898 54.117 802.408 54.026 801.975 53.844C801.542 53.6533 801.199 53.3933 800.948 53.064C800.697 52.726 800.558 52.3403 800.532 51.907H801.754C801.789 52.2623 801.953 52.5527 802.248 52.778C802.551 53.0033 802.946 53.116 803.431 53.116C803.882 53.116 804.237 53.0163 804.497 52.817C804.757 52.6177 804.887 52.3663 804.887 52.063C804.887 51.751 804.748 51.5213 804.471 51.374C804.194 51.218 803.765 51.0663 803.184 50.919C802.655 50.7803 802.222 50.6417 801.884 50.503C801.555 50.3557 801.269 50.1433 801.026 49.866C800.792 49.58 800.675 49.2073 800.675 48.748C800.675 48.384 800.783 48.0503 801 47.747C801.217 47.4437 801.524 47.2053 801.923 47.032C802.322 46.85 802.777 46.759 803.288 46.759C804.077 46.759 804.714 46.9583 805.199 47.357C805.684 47.7557 805.944 48.3017 805.979 48.995H804.796C804.77 48.6223 804.618 48.3233 804.341 48.098C804.072 47.8727 803.708 47.76 803.249 47.76C802.824 47.76 802.486 47.851 802.235 48.033C801.984 48.215 801.858 48.4533 801.858 48.748C801.858 48.982 801.932 49.177 802.079 49.333C802.235 49.4803 802.426 49.6017 802.651 49.697C802.885 49.7837 803.206 49.8833 803.613 49.996C804.124 50.1347 804.54 50.2733 804.861 50.412C805.182 50.542 805.455 50.7413 805.68 51.01C805.914 51.2787 806.035 51.6297 806.044 52.063C806.044 52.453 805.936 52.804 805.719 53.116C805.502 53.428 805.195 53.675 804.796 53.857C804.406 54.0303 803.955 54.117 803.444 54.117ZM814.214 50.165C814.214 50.3903 814.201 50.6287 814.175 50.88H808.481C808.524 51.582 808.763 52.1323 809.196 52.531C809.638 52.921 810.171 53.116 810.795 53.116C811.306 53.116 811.731 52.999 812.069 52.765C812.416 52.5223 812.658 52.2017 812.797 51.803H814.071C813.88 52.4877 813.499 53.0467 812.927 53.48C812.355 53.9047 811.644 54.117 810.795 54.117C810.119 54.117 809.512 53.9653 808.975 53.662C808.446 53.3587 808.03 52.9297 807.727 52.375C807.424 51.8117 807.272 51.1617 807.272 50.425C807.272 49.6883 807.419 49.0427 807.714 48.488C808.009 47.9333 808.42 47.5087 808.949 47.214C809.486 46.9107 810.102 46.759 810.795 46.759C811.471 46.759 812.069 46.9063 812.589 47.201C813.109 47.4957 813.508 47.903 813.785 48.423C814.071 48.9343 814.214 49.515 814.214 50.165ZM812.992 49.918C812.992 49.4673 812.892 49.0817 812.693 48.761C812.494 48.4317 812.221 48.1847 811.874 48.02C811.536 47.8467 811.159 47.76 810.743 47.76C810.145 47.76 809.634 47.9507 809.209 48.332C808.793 48.7133 808.555 49.242 808.494 49.918H812.992ZM816.958 48.033C817.166 47.6257 817.461 47.3093 817.842 47.084C818.232 46.8587 818.705 46.746 819.259 46.746V47.968H818.947C817.621 47.968 816.958 48.6873 816.958 50.126V54H815.775V46.876H816.958V48.033ZM823.277 52.908L825.487 46.876H826.748L823.953 54H822.575L819.78 46.876H821.054L823.277 52.908ZM834.412 50.165C834.412 50.3903 834.399 50.6287 834.373 50.88H828.679C828.722 51.582 828.961 52.1323 829.394 52.531C829.836 52.921 830.369 53.116 830.993 53.116C831.504 53.116 831.929 52.999 832.267 52.765C832.614 52.5223 832.856 52.2017 832.995 51.803H834.269C834.078 52.4877 833.697 53.0467 833.125 53.48C832.553 53.9047 831.842 54.117 830.993 54.117C830.317 54.117 829.71 53.9653 829.173 53.662C828.644 53.3587 828.228 52.9297 827.925 52.375C827.622 51.8117 827.47 51.1617 827.47 50.425C827.47 49.6883 827.617 49.0427 827.912 48.488C828.207 47.9333 828.618 47.5087 829.147 47.214C829.684 46.9107 830.3 46.759 830.993 46.759C831.669 46.759 832.267 46.9063 832.787 47.201C833.307 47.4957 833.706 47.903 833.983 48.423C834.269 48.9343 834.412 49.515 834.412 50.165ZM833.19 49.918C833.19 49.4673 833.09 49.0817 832.891 48.761C832.692 48.4317 832.419 48.1847 832.072 48.02C831.734 47.8467 831.357 47.76 830.941 47.76C830.343 47.76 829.832 47.9507 829.407 48.332C828.991 48.7133 828.753 49.242 828.692 49.918H833.19ZM835.532 50.412C835.532 49.684 835.679 49.047 835.974 48.501C836.268 47.9463 836.671 47.5173 837.183 47.214C837.703 46.9107 838.283 46.759 838.925 46.759C839.479 46.759 839.995 46.889 840.472 47.149C840.948 47.4003 841.312 47.734 841.564 48.15V44.38H842.76V54H841.564V52.661C841.33 53.0857 840.983 53.4367 840.524 53.714C840.064 53.9827 839.527 54.117 838.912 54.117C838.279 54.117 837.703 53.961 837.183 53.649C836.671 53.337 836.268 52.8993 835.974 52.336C835.679 51.7727 835.532 51.1313 835.532 50.412ZM841.564 50.425C841.564 49.8877 841.455 49.4197 841.239 49.021C841.022 48.6223 840.727 48.319 840.355 48.111C839.991 47.8943 839.588 47.786 839.146 47.786C838.704 47.786 838.301 47.89 837.937 48.098C837.573 48.306 837.282 48.6093 837.066 49.008C836.849 49.4067 836.741 49.8747 836.741 50.412C836.741 50.958 836.849 51.4347 837.066 51.842C837.282 52.2407 837.573 52.5483 837.937 52.765C838.301 52.973 838.704 53.077 839.146 53.077C839.588 53.077 839.991 52.973 840.355 52.765C840.727 52.5483 841.022 52.2407 841.239 51.842C841.455 51.4347 841.564 50.9623 841.564 50.425Z" fill="white"/>
<path d="M-75 16.8842V82.8842H99V16.8842C85 17.3842 75 18.032 58 10.8603C22.5 -4.1158 0.5 -3.11585 -34 10.8603C-49.5929 17.1771 -68 16.7175 -75 16.8842Z" fill="white" fill-opacity="0.08"/>
<path d="M99 16.8842V82.8842H273V16.8842C259 17.3842 249 18.032 232 10.8603C196.5 -4.1158 174.5 -3.11585 140 10.8603C124.407 17.1771 106 16.7175 99 16.8842Z" fill="white" fill-opacity="0.08"/>
<path d="M273 16.8842V82.8842H447V16.8842C433 17.3842 423 18.032 406 10.8603C370.5 -4.1158 348.5 -3.11585 314 10.8603C298.407 17.1771 280 16.7175 273 16.8842Z" fill="white" fill-opacity="0.08"/>
<path d="M447 16.8842V82.8842H621V16.8842C607 17.3842 597 18.032 580 10.8603C544.5 -4.1158 522.5 -3.11585 488 10.8603C472.407 17.1771 454 16.7175 447 16.8842Z" fill="white" fill-opacity="0.08"/>
<path d="M621 16.8842V82.8842H795V16.8842C781 17.3842 771 18.032 754 10.8603C718.5 -4.1158 696.5 -3.11585 662 10.8603C646.407 17.1771 628 16.7175 621 16.8842Z" fill="white" fill-opacity="0.08"/>
<path d="M795 16.8842V82.8842H969V16.8842C955 17.3842 945 18.032 928 10.8603C892.5 -4.1158 870.5 -3.11585 836 10.8603C820.407 17.1771 802 16.7175 795 16.8842Z" fill="white" fill-opacity="0.08"/>
<path d="M969 16.8842V82.8842H1143V16.8842C1129 17.3842 1119 18.032 1102 10.8603C1066.5 -4.1158 1044.5 -3.11585 1010 10.8603C994.407 17.1771 976 16.7175 969 16.8842Z" fill="white" fill-opacity="0.08"/>
<path d="M1143 16.8842V82.8842H1317V16.8842C1303 17.3842 1293 18.032 1276 10.8603C1240.5 -4.1158 1218.5 -3.11585 1184 10.8603C1168.41 17.1771 1150 16.7175 1143 16.8842Z" fill="white" fill-opacity="0.08"/>
<path d="M1317 16.8842V82.8842H1491V16.8842C1477 17.3842 1467 18.032 1450 10.8603C1414.5 -4.1158 1392.5 -3.11585 1358 10.8603C1342.41 17.1771 1324 16.7175 1317 16.8842Z" fill="white" fill-opacity="0.08"/>
</svg>
