<svg width="27" height="27" viewBox="0 0 27 27" fill="none" xmlns="http://www.w3.org/2000/svg">
<g id="gis:earth-america" clip-path="url(#clip0_8_2309)">
<path id="Vector" d="M13.5 0C6.04908 0 0 6.04908 0 13.5C0 20.9509 6.04908 27 13.5 27C20.9374 27 26.976 20.9725 26.9978 13.54C26.9991 13.5267 26.9998 13.5133 27 13.5C26.9999 13.488 26.9993 13.476 26.9984 13.4641C26.9789 6.02964 20.939 0 13.5 0ZM13.878 0.81945C14.3687 0.83349 14.8516 0.87444 15.3268 0.9423C15.6346 1.06704 15.9181 1.21581 16.0866 1.35999C16.5742 1.75419 18.9189 2.94219 17.7633 1.62567C17.746 1.59057 17.7363 1.56249 17.7244 1.53198C22.6576 3.27105 26.19 7.96878 26.19 13.5C26.19 19.5194 22.0066 24.5506 16.3871 25.8568C16.7222 25.6767 17.108 25.4891 17.3364 25.3589C18.4964 24.8324 19.5772 24.2023 20.5427 23.3275C21.2161 22.1886 22.7081 21.8938 23.2211 20.6096C23.5427 19.4554 24.583 18.579 24.6148 17.348C24.0621 16.547 22.3576 17.2549 22.0466 16.105C21.9308 14.8967 20.6412 15.4259 20.0745 14.8576C19.2254 14.7593 19.7465 13.3558 19.0472 14.0036C18.1861 13.5948 18.3992 14.1359 17.4793 14.1561C17.5935 13.7422 16.8691 13.3542 16.7173 13.733C16.6277 13.7687 15.1745 13.7136 15.0347 14.6281C14.4877 14.6537 13.6712 14.7682 13.1366 14.4671C12.66 13.7954 13.638 12.6284 12.2591 12.5709C11.279 12.8129 11.7704 12.177 11.9418 11.4893C12.3687 10.3896 10.6863 11.1429 10.4863 11.7113C9.43164 12.3026 8.76987 10.6342 9.35361 9.84717C9.50535 8.23203 11.3052 9.2259 12.1268 8.64837C12.9884 8.63379 13.3618 9.66357 13.4152 10.2427C14.7782 10.0213 12.7805 8.20692 14.1442 7.80111C15.231 7.52355 14.658 6.52806 15.4267 5.93568C16.4063 5.99724 15.43 5.16861 16.2459 5.09328C16.5645 5.33574 18.0768 5.04063 17.4377 4.40073C16.9069 4.88538 16.7432 4.04325 16.3328 3.95307C16.8585 3.9609 17.0578 4.19823 17.4444 3.66336C17.3154 4.36752 18.1823 4.6548 18.7728 4.482C18.0317 3.50838 16.9741 2.91654 15.9054 2.2545C15.6749 1.2771 14.8821 1.06596 13.878 0.81945ZM13.7568 1.27764C13.935 1.26873 14.1348 1.3068 14.2336 1.40373C13.3909 1.83573 13.7932 1.87947 13.9139 2.60928C14.296 2.4219 13.9193 3.1158 13.9658 2.84229C14.2239 2.45511 13.351 2.61603 13.6877 3.23325C13.3024 2.77236 12.3044 2.81961 11.8352 2.3625C11.8525 1.42749 13.3672 2.29068 13.6139 1.66536C13.2238 1.43964 13.4598 1.29276 13.7568 1.27764ZM6.97383 2.61414C6.74163 2.96973 6.25887 3.48678 6.56154 3.3777C6.58908 3.58641 6.15384 4.82625 5.61762 5.24502C5.13756 5.84415 4.91022 7.28163 5.40027 7.61211C5.43915 8.32842 5.53446 9.16812 5.72346 9.81072C6.38091 11.2263 6.44328 9.5283 6.03477 8.89812C6.48567 9.50265 7.04403 10.662 7.10721 11.6006C7.75818 12.1397 8.57304 12.7867 9.46566 12.7454C10.1814 13.0866 11.208 13.6123 11.9483 14.0997C12.1973 14.8314 13.0472 15.2842 13.7444 15.4991C14.0851 14.6624 14.7058 15.6705 14.6086 16.3013C14.2949 16.8915 13.3167 17.5524 13.6126 18.262C12.9867 18.9932 14.1145 19.5758 14.3713 20.3507C14.7782 20.9288 15.036 21.7077 15.8882 21.8573C17.0381 22.6722 15.7299 24.1261 15.2979 25.0657C15.1853 25.4124 14.5946 25.8128 14.469 26.1495C14.1488 26.1735 13.8264 26.19 13.5003 26.19C6.48675 26.19 0.81 20.5133 0.81 13.5C0.81 8.87436 3.28023 4.83165 6.97356 2.61414M14.4277 9.45891C14.3278 9.45432 14.2255 9.49671 14.1207 9.60768C14.8114 9.56583 13.8048 10.5276 14.6059 10.5073C14.9256 9.52317 14.8106 10.736 15.4186 10.8834C15.8061 11.2668 15.5123 10.3037 15.4861 10.3866C15.2331 10.3769 14.8589 9.47862 14.4277 9.45891ZM13.4209 10.4193C13.2091 10.4125 13.0003 10.4714 12.8234 10.5881C12.0744 11.016 12.7478 10.996 13.0124 11.2045C13.4868 10.803 13.8721 11.1956 14.4428 11.3986C14.4488 12.1927 15.7256 11.1378 15.7232 11.7442C15.0217 12.0118 15.8636 12.2437 16.2265 12.2021C16.3777 12.4654 16.4689 12.0995 16.6377 12.1246C17.1979 12.1878 17.6999 11.8203 16.7837 11.5225C16.0375 11.6348 15.9748 11.1823 15.7334 10.9987C15.0908 11.4507 14.2765 10.4452 13.4209 10.4193ZM18.5798 11.8441C18.5568 11.853 18.5423 11.8919 18.5398 11.9786C18.8457 12.4435 19.3698 13.0572 19.0501 13.7319C19.6657 13.6642 19.1997 12.4076 19.0255 11.9486C18.9351 12.3271 18.6794 11.8055 18.5798 11.8441Z" fill="black"/>
</g>
<defs>
<clipPath id="clip0_8_2309">
<rect width="27" height="27" fill="white"/>
</clipPath>
</defs>
</svg>
