<svg width="28" height="23" viewBox="0 0 28 23" fill="none" xmlns="http://www.w3.org/2000/svg">
<path d="M8.01541 0.0181742C5.83708 0.0172066 3.82064 0.712603 2.35889 2.08078C0.897505 3.44759 0.0156115 5.48208 0.0154913 8.01787C0.0156775 10.6782 1.88724 13.1518 4.42181 15.5798C6.95688 18.0086 10.218 20.4051 13.2029 22.893C13.3789 23.0339 13.653 23.0327 13.8283 22.8922C16.812 20.4063 20.0669 18.0018 22.6088 15.5805C25.1529 13.159 27.0464 10.7066 27.0472 8.01804C27.0474 5.45447 26.1345 3.44125 24.672 2.08015C23.2095 0.719038 21.223 0.0184112 19.0469 0.0173096C16.8082 0.0177272 14.9168 1.42962 13.5157 2.86091C12.1203 1.43798 10.2497 0.0180246 8.01541 0.0181742Z" fill="black"/>
</svg>
