<svg width="24" height="24" viewBox="0 0 24 24" fill="none" xmlns="http://www.w3.org/2000/svg">
<path d="M16.8 3.3C12.9 1.1 8.1 1.8 5 4.8V3C5 2.4 4.6 2 4 2C3.4 2 3 2.4 3 3V7.5C3 8.1 3.4 8.5 4 8.5H8.5C9.1 8.5 9.5 8.1 9.5 7.5C9.5 6.9 9.1 6.5 8.5 6.5H6.1C7.5 4.9 9.6 4 11.9 4C16.3 4 19.9 7.6 19.9 12C19.9 16.4 16.3 20 11.9 20C11.3 20 10.9 20.4 10.9 21C10.9 21.6 11.3 22 11.9 22C15.5 22 18.8 20.1 20.6 17C23.3 12.2 21.6 6.1 16.8 3.3ZM11.8 8C11.2 8 10.8 8.4 10.8 9V12C10.8 12.6 11.2 13 11.8 13H13.8C14.4 13 14.8 12.6 14.8 12C14.8 11.4 14.4 11 13.8 11H12.8V9C12.8 8.4 12.4 8 11.8 8Z" fill="black"/>
</svg>
