<svg width="19" height="20" viewBox="0 0 19 20" fill="none" xmlns="http://www.w3.org/2000/svg">
<g id="add-to-list_svgrepo.com">
<path id="Vector" d="M4.75 8.33333H14.25" stroke="#E8E0D9" stroke-linecap="square"/>
<path id="Vector_2" d="M4.75 5H14.25" stroke="#E8E0D9" stroke-linecap="square"/>
<path id="Vector_3" d="M4.75 11.6667H7.91667" stroke="#E8E0D9" stroke-linecap="square"/>
<path id="Vector_4" d="M4.75 15H7.91667" stroke="#E8E0D9" stroke-linecap="square"/>
<path id="Vector_5" d="M12.5002 16C12.1628 16 11.8351 15.9341 11.527 15.8037C11.2291 15.6777 10.962 15.4971 10.7325 15.2676C10.503 15.0381 10.3223 14.771 10.1963 14.4731C10.0659 14.165 10 13.8374 10 13.5C10 13.4028 10.0786 13.3242 10.1758 13.3242C10.273 13.3242 10.3516 13.4028 10.3516 13.5C10.3516 13.79 10.4082 14.0713 10.5206 14.3364C10.629 14.5923 10.7838 14.8223 10.9811 15.0195C11.1783 15.2168 11.4083 15.3721 11.6642 15.48C11.9289 15.5918 12.2102 15.6484 12.5002 15.6484C12.7903 15.6484 13.0716 15.5918 13.3368 15.4795C13.5926 15.3711 13.8226 15.2163 14.0199 15.019C14.2172 14.8218 14.3725 14.5918 14.4804 14.3359C14.5922 14.0713 14.6489 13.79 14.6489 13.5C14.6489 13.21 14.5922 12.9287 14.4799 12.6636C14.3719 12.4083 14.2155 12.1764 14.0194 11.9805C13.8237 11.7841 13.5917 11.6278 13.3363 11.52C13.0716 11.4082 12.7903 11.3516 12.5002 11.3516C12.4031 11.3516 12.3244 11.2729 12.3244 11.1758C12.3244 11.0786 12.4031 11 12.5002 11C12.8377 11 13.1653 11.0659 13.4735 11.1963C13.7714 11.3223 14.0385 11.5029 14.268 11.7324C14.4975 11.9619 14.6777 12.2295 14.8037 12.5269C14.9341 12.835 15 13.1626 15 13.5C15 13.8374 14.9341 14.165 14.8037 14.4731C14.6782 14.771 14.4975 15.0381 14.268 15.2676C14.0385 15.4971 13.7709 15.6772 13.4735 15.8032C13.1653 15.9341 12.8377 16 12.5002 16Z" fill="#DCC6BC"/>
</g>
</svg>
