<svg width="36" height="31" viewBox="0 0 36 31" fill="none" xmlns="http://www.w3.org/2000/svg">
<g id="delete-music-song_svgrepo.com" clip-path="url(#clip0_84_15787)">
<path id="Vector" fill-rule="evenodd" clip-rule="evenodd" d="M32.439 21.044C32.3839 21.5827 31.9035 22.0034 31.3185 22.0034H26.8185C26.1975 22.0034 25.6935 21.5274 25.6935 20.9409C25.6935 20.3555 26.1975 19.8784 26.8185 19.8784H31.3185C31.9035 19.8784 32.385 20.3013 32.439 20.84L32.4435 4.15026C32.4435 2.2707 30.8303 0.74707 28.8402 0.74707H9.02442C7.03317 0.74707 5.41992 2.2707 5.41992 4.15026V22.8534C5.41992 24.7319 7.03317 26.2556 9.02442 26.2556H29.0629C30.927 26.2556 32.4379 24.8286 32.4379 23.0691L32.439 21.044ZM14.4312 15.6869H14.4289C13.1858 15.6869 12.1767 16.6399 12.1767 17.814C12.1767 18.9881 13.1858 19.9411 14.4289 19.9411C15.672 19.9411 16.6812 18.9881 16.6812 17.814V10.2469L23.4323 9.45001L23.4345 13.5587C22.1914 13.5587 21.1834 14.5118 21.1834 15.6858C21.1834 16.8588 22.1914 17.8119 23.4345 17.8119C24.6777 17.8119 25.6868 16.8588 25.6868 15.6858L25.6812 8.24513C25.6812 7.94126 25.5417 7.6512 25.2998 7.44932C25.0579 7.24745 24.7362 7.15394 24.4167 7.19219L15.4167 8.25469C14.853 8.32057 14.4312 8.7732 14.4312 9.3087V15.6869Z" fill="#145C9E"/>
</g>
<defs>
<clipPath id="clip0_84_15787">
<rect width="35" height="30" fill="white" transform="translate(0.459961 0.252808)"/>
</clipPath>
</defs>
</svg>
