<svg width="25" height="25" viewBox="0 0 25 25" fill="none" xmlns="http://www.w3.org/2000/svg">
<g id="Translate" clip-path="url(#clip0_84_15806)">
<path id="Vector" d="M17.5034 20.1986H3.00342C2.34062 20.1978 1.7052 19.9342 1.23653 19.4655C0.767859 18.9968 0.504212 18.3614 0.503418 17.6986L0.503418 2.69861C0.503418 1.32061 1.62542 0.198608 3.00342 0.198608H11.0034C11.1077 0.198614 11.2093 0.231197 11.2941 0.2918C11.3789 0.352403 11.4426 0.437995 11.4764 0.536608L17.9764 19.5366C18.0017 19.6119 18.0088 19.6921 17.9971 19.7706C17.9854 19.8492 17.9552 19.9238 17.9091 19.9885C17.8629 20.0531 17.802 20.1058 17.7315 20.1423C17.661 20.1789 17.5828 20.1982 17.5034 20.1986ZM3.00342 1.19861C2.17642 1.19861 1.50342 1.87161 1.50342 2.69861V17.6986C1.50342 18.5256 2.17642 19.1986 3.00342 19.1986H16.8034L10.6464 1.19861H3.00342Z" fill="#FFBB02"/>
<path id="Vector_2" d="M22.0034 24.1986H14.0034C13.9017 24.1986 13.8024 24.1676 13.7188 24.1097C13.6352 24.0518 13.5712 23.9698 13.5354 23.8746L12.0354 19.8746C11.9887 19.7505 11.9933 19.6129 12.048 19.4921C12.1028 19.3714 12.2033 19.2773 12.3274 19.2306C12.4515 19.1839 12.5891 19.1885 12.7099 19.2432C12.8307 19.298 12.9247 19.3985 12.9714 19.5226L14.3504 23.1986H22.0034C22.8304 23.1986 23.5034 22.5256 23.5034 21.6986V6.69861C23.5034 5.87161 22.8304 5.19861 22.0034 5.19861H12.5034C12.3708 5.19861 12.2436 5.14593 12.1499 5.05216C12.0561 4.95839 12.0034 4.83122 12.0034 4.69861C12.0034 4.566 12.0561 4.43882 12.1499 4.34506C12.2436 4.25129 12.3708 4.19861 12.5034 4.19861H22.0034C23.3814 4.19861 24.5034 5.32061 24.5034 6.69861V21.6986C24.5034 23.0766 23.3814 24.1986 22.0034 24.1986Z" fill="#FFBB02"/>
<path id="Vector_3" d="M14.0035 24.1986C13.9073 24.1987 13.8132 24.171 13.7323 24.1189C13.6515 24.0668 13.5874 23.9925 13.5477 23.9049C13.508 23.8173 13.4944 23.7201 13.5086 23.625C13.5227 23.5299 13.564 23.4409 13.6275 23.3686L17.1275 19.3686C17.1708 19.3192 17.2233 19.2787 17.2822 19.2496C17.3411 19.2205 17.4052 19.2033 17.4707 19.1989C17.5363 19.1945 17.6021 19.2031 17.6643 19.2242C17.7266 19.2452 17.784 19.2783 17.8335 19.3216C17.8829 19.3649 17.9234 19.4175 17.9525 19.4764C17.9816 19.5353 17.9988 19.5993 18.0032 19.6649C18.0076 19.7304 17.999 19.7962 17.9779 19.8585C17.9569 19.9207 17.9238 19.9782 17.8805 20.0276L14.3805 24.0276C14.3334 24.0813 14.2754 24.1243 14.2104 24.1538C14.1454 24.1833 14.0749 24.1986 14.0035 24.1986ZM10.0035 14.1986C9.90028 14.1988 9.79957 14.1669 9.71522 14.1075C9.63086 14.048 9.56702 13.9639 9.53248 13.8666L7.50348 8.18562L5.47448 13.8666C5.42993 13.9915 5.33757 14.0936 5.21774 14.1505C5.0979 14.2073 4.9604 14.2142 4.83548 14.1696C4.71057 14.1251 4.60847 14.0327 4.55164 13.9129C4.49482 13.793 4.48793 13.6555 4.53248 13.5306L7.03248 6.53062C7.17448 6.13262 7.83248 6.13262 7.97348 6.53062L10.4735 13.5306C10.5004 13.606 10.5088 13.6867 10.498 13.766C10.4872 13.8453 10.4575 13.9209 10.4115 13.9863C10.3654 14.0518 10.3043 14.1052 10.2333 14.1422C10.1623 14.1791 10.0835 14.1985 10.0035 14.1986Z" fill="#FFBB02"/>
<path id="Vector_4" d="M8.50342 11.1986H6.50342C6.37081 11.1986 6.24363 11.1459 6.14986 11.0522C6.0561 10.9584 6.00342 10.8312 6.00342 10.6986C6.00342 10.566 6.0561 10.4388 6.14986 10.3451C6.24363 10.2513 6.37081 10.1986 6.50342 10.1986H8.50342C8.63603 10.1986 8.7632 10.2513 8.85697 10.3451C8.95074 10.4388 9.00342 10.566 9.00342 10.6986C9.00342 10.8312 8.95074 10.9584 8.85697 11.0522C8.7632 11.1459 8.63603 11.1986 8.50342 11.1986ZM22.0034 11.1986H15.0034C14.8708 11.1986 14.7436 11.1459 14.6499 11.0522C14.5561 10.9584 14.5034 10.8312 14.5034 10.6986C14.5034 10.566 14.5561 10.4388 14.6499 10.3451C14.7436 10.2513 14.8708 10.1986 15.0034 10.1986H22.0034C22.136 10.1986 22.2632 10.2513 22.357 10.3451C22.4507 10.4388 22.5034 10.566 22.5034 10.6986C22.5034 10.8312 22.4507 10.9584 22.357 11.0522C22.2632 11.1459 22.136 11.1986 22.0034 11.1986Z" fill="#FFBB02"/>
<path id="Vector_5" d="M18.0034 11.1986C17.8708 11.1986 17.7437 11.1459 17.6499 11.0522C17.5561 10.9584 17.5034 10.8312 17.5034 10.6986V9.69861C17.5034 9.566 17.5561 9.43882 17.6499 9.34505C17.7437 9.25129 17.8708 9.19861 18.0034 9.19861C18.1361 9.19861 18.2632 9.25129 18.357 9.34505C18.4508 9.43882 18.5034 9.566 18.5034 9.69861V10.6986C18.5034 10.8312 18.4508 10.9584 18.357 11.0522C18.2632 11.1459 18.1361 11.1986 18.0034 11.1986ZM16.5034 17.1986C16.3969 17.1999 16.2927 17.1669 16.2063 17.1046C16.1198 17.0423 16.0556 16.9538 16.0232 16.8523C15.9907 16.7508 15.9917 16.6415 16.0259 16.5406C16.0602 16.4397 16.1259 16.3524 16.2134 16.2916C18.4024 14.7366 20.0034 11.5646 20.0034 10.6996C20.0034 10.567 20.0561 10.4398 20.1499 10.3461C20.2437 10.2523 20.3708 10.1996 20.5034 10.1996C20.6361 10.1996 20.7632 10.2523 20.857 10.3461C20.9508 10.4398 21.0034 10.567 21.0034 10.6996C21.0034 12.0176 19.0764 15.4846 16.7934 17.1076C16.7084 17.1669 16.6071 17.1986 16.5034 17.1986Z" fill="#FFBB02"/>
<path id="Vector_6" d="M20.5034 18.1986C20.3785 18.1991 20.2581 18.1523 20.1664 18.0676C19.8034 17.7356 16.6084 14.7846 16.0404 13.3866C15.9957 13.2649 16.0001 13.1305 16.0525 13.012C16.105 12.8934 16.2015 12.7998 16.3217 12.751C16.4418 12.7022 16.5762 12.702 16.6965 12.7505C16.8168 12.7989 16.9136 12.8922 16.9664 13.0106C17.3754 14.0176 19.9024 16.4696 20.8414 17.3296C20.9158 17.3976 20.9679 17.4866 20.9909 17.5848C21.0138 17.683 21.0065 17.7859 20.97 17.8798C20.9334 17.9738 20.8693 18.0546 20.786 18.1115C20.7028 18.1683 20.6042 18.1987 20.5034 18.1986Z" fill="#FFBB02"/>
</g>
<defs>
<clipPath id="clip0_84_15806">
<rect width="24" height="24" fill="white" transform="translate(0.503418 0.198608)"/>
</clipPath>
</defs>
</svg>
