<?xml version="1.0" standalone="no"?>
<!DOCTYPE svg PUBLIC "-//W3C//DTD SVG 20010904//EN"
 "http://www.w3.org/TR/2001/REC-SVG-20010904/DTD/svg10.dtd">
<svg version="1.0" xmlns="http://www.w3.org/2000/svg"
 width="300.000000pt" height="255.000000pt" viewBox="0 0 300.000000 255.000000"
 preserveAspectRatio="xMidYMid meet">
<metadata>
Created by potrace 1.10, written by Peter Selinger 2001-2011
</metadata>
<g transform="translate(0.000000,255.000000) scale(0.100000,-0.100000)"
fill="#000000" stroke="none">
<path d="M417 2349 c-78 -41 -85 -124 -12 -155 31 -12 39 -12 70 0 37 16 59
53 48 83 -9 26 -45 53 -71 53 -13 0 -20 4 -17 10 3 6 35 10 69 10 49 0 69 -5
89 -21 34 -26 50 -87 42 -158 l-6 -56 -225 3 c-197 3 -224 1 -224 -12 0 -14
28 -16 220 -16 158 0 220 -3 220 -11 0 -8 -14 -10 -45 -6 -96 14 -211 -27
-281 -100 -36 -37 -48 -43 -83 -43 -32 0 -39 -3 -34 -16 4 -11 13 -13 34 -9
33 8 34 5 14 -36 -21 -40 -22 -144 -1 -193 26 -63 84 -134 158 -193 57 -45 69
-59 64 -77 -4 -11 -12 -54 -18 -93 l-12 -73 -124 0 c-87 0 -123 -3 -120 -11 3
-8 43 -11 124 -10 l121 2 6 -57 c6 -60 44 -149 77 -179 31 -28 70 -22 101 14
33 40 59 119 59 178 l0 46 36 -6 c38 -6 64 0 64 14 0 5 -24 9 -54 9 l-54 0
-11 44 c-13 54 -60 143 -101 194 l-31 39 14 54 13 54 72 6 c74 7 104 20 155
68 45 41 60 79 60 146 l0 60 986 0 c647 0 988 3 991 10 3 7 -333 11 -995 13
l-1000 3 -30 42 c-20 27 -50 51 -83 67 -28 14 -52 31 -52 38 0 9 224 12 1085
12 717 0 1085 3 1085 10 0 7 -366 10 -1078 10 l-1079 0 5 78 c5 91 -10 131
-61 162 -43 27 -129 26 -180 -1z m44 -68 c20 -16 22 -21 10 -35 -17 -20 -50
-17 -64 6 -8 12 -7 21 2 32 17 20 24 20 52 -3z m147 -237 c2 -1 -2 -28 -9 -58
l-12 -56 -149 0 -149 0 21 28 c31 39 101 80 157 91 41 8 131 5 141 -5z m83
-53 c22 -21 39 -44 39 -50 0 -7 -22 -11 -60 -11 -33 0 -60 3 -60 6 0 23 24 94
32 94 6 0 28 -17 49 -39z m-251 -90 c0 -2 -8 -13 -17 -23 -24 -27 -29 -117 -9
-156 13 -25 64 -68 103 -87 5 -3 -29 -95 -34 -95 -17 0 -141 122 -170 167 -35
55 -51 128 -40 175 6 22 11 23 87 23 44 0 80 -2 80 -4z m140 1 c-1 -19 -38
-164 -44 -169 -10 -11 -57 28 -73 61 -17 36 -13 75 10 98 14 13 107 22 107 10z
m164 -8 c7 -17 -10 -81 -28 -109 -20 -31 -61 -52 -117 -61 -41 -7 -42 -6 -36
17 4 13 14 56 23 94 l17 70 68 0 c42 0 70 -4 73 -11z m-168 -215 c9 -14 -42
-10 -55 4 -8 11 -5 13 19 9 17 -2 33 -8 36 -13z m-151 -144 c68 -57 79 -69
101 -109 16 -28 16 -28 -6 -13 -47 33 -218 199 -229 223 -19 42 -13 41 32 -7
23 -25 69 -67 102 -94z m99 -185 c21 -27 47 -63 57 -80 l19 -30 -70 0 c-70 0
-70 0 -70 28 0 46 12 132 19 132 3 -1 24 -23 45 -50z m90 -165 c13 -68 -32
-113 -84 -85 -27 14 -60 68 -60 98 0 21 4 22 69 22 l69 0 6 -35z m-43 -141 c9
-5 7 -11 -6 -21 -16 -11 -22 -10 -42 9 -13 12 -23 25 -23 29 0 8 51 -4 71 -17z"/>
<path d="M2210 1732 c-163 -75 -203 -98 -216 -124 -15 -28 -19 -58 -8 -58 4 0
23 10 42 22 20 12 76 39 126 59 90 37 104 50 105 97 1 26 -2 26 -49 4z"/>
<path d="M1530 1710 c-9 -17 -9 -29 -1 -47 12 -27 6 -63 -10 -63 -6 0 -24 7
-40 16 -28 14 -30 19 -25 49 10 51 -10 51 -33 0 -20 -45 -48 -65 -93 -65 -21
0 -21 7 -3 68 11 33 -16 28 -37 -7 -24 -43 -57 -60 -126 -67 -57 -6 -62 -9
-62 -30 0 -22 4 -24 55 -24 31 0 69 7 86 15 27 14 31 14 45 0 8 -8 18 -15 22
-15 23 0 84 23 97 36 14 14 19 13 50 -6 66 -41 105 -10 105 85 0 64 -13 87
-30 55z"/>
<path d="M1754 1712 c-6 -4 -23 -25 -38 -46 -33 -49 -36 -120 -7 -136 33 -17
96 -12 125 11 22 17 26 28 26 74 0 47 -3 56 -31 79 -31 26 -54 32 -75 18z m50
-68 c31 -32 33 -50 6 -64 -34 -18 -74 -9 -78 18 -4 23 21 72 37 72 4 0 20 -12
35 -26z"/>
<path d="M2352 1501 c-104 -36 -182 -143 -182 -251 l0 -55 -26 33 c-14 18 -45
42 -67 53 -49 25 -87 57 -87 75 0 20 41 44 75 45 58 1 63 8 47 63 l-14 48 -46
-6 c-108 -15 -175 -77 -175 -162 0 -50 22 -89 65 -112 92 -51 118 -72 118 -95
0 -38 -32 -59 -94 -61 -31 -2 -59 -5 -62 -9 -3 -3 -2 -26 1 -51 l7 -46 57 0
c32 0 73 8 96 19 54 24 105 83 105 121 0 40 13 38 28 -4 15 -40 79 -101 131
-124 24 -11 66 -16 126 -16 95 -1 144 15 208 66 l28 23 -22 41 -23 41 -48 -30
c-64 -40 -174 -49 -228 -19 -31 17 -86 80 -77 88 3 3 323 34 354 34 24 0 43
32 43 74 0 95 -87 200 -187 225 -58 15 -89 13 -151 -8z m183 -50 c68 -30 122
-114 113 -173 -2 -19 -10 -24 -47 -26 l-44 -3 16 25 c23 34 21 64 -5 101 -75
111 -214 104 -285 -13 -30 -48 -29 -83 2 -112 25 -23 25 -24 7 -44 -31 -34
-33 -44 -18 -73 52 -101 201 -136 319 -77 17 9 27 11 27 4 0 -24 -84 -50 -162
-50 -103 0 -144 18 -212 92 -31 33 -61 58 -68 56 -7 -2 -26 -25 -43 -51 -31
-48 -77 -80 -132 -91 -48 -11 -48 9 0 21 47 13 82 45 91 83 9 36 -24 83 -81
116 -77 44 -93 62 -93 106 0 47 11 70 43 91 32 21 97 33 97 18 0 -6 -9 -11
-19 -11 -10 0 -33 -13 -50 -29 -61 -57 -35 -106 96 -184 90 -54 103 -50 122
41 28 131 109 201 236 201 28 0 68 -8 90 -18z m-20 -73 c19 -18 37 -45 40 -59
6 -25 4 -27 -42 -32 -121 -16 -210 -19 -217 -9 -11 18 19 76 53 105 26 21 43
27 82 27 42 0 54 -5 84 -32z"/>
<path d="M1260 1501 c-72 -22 -123 -66 -162 -141 -31 -60 -33 -185 -4 -245
l20 -40 4 35 c4 36 45 90 69 90 8 0 13 13 13 34 0 95 72 168 166 168 83 0 145
-64 151 -155 5 -65 -22 -115 -85 -161 -35 -25 -54 -31 -93 -31 -27 0 -49 -1
-49 -2 0 -1 9 -22 20 -47 13 -31 25 -46 37 -46 31 1 92 27 127 54 41 31 56 33
56 7 0 -43 10 -51 65 -51 30 0 56 3 58 8 3 4 2 68 -2 142 -7 128 0 296 14 331
7 19 -4 25 -69 34 -44 7 -46 6 -46 -16 0 -42 -14 -52 -36 -28 -36 40 -109 69
-171 68 -32 0 -69 -4 -83 -8z m167 -56 c26 -15 26 -15 3 -8 -115 36 -233 -38
-266 -169 -15 -57 -27 -74 -43 -64 -32 20 4 148 56 199 63 63 179 83 250 42z
m184 -215 c-1 -113 -6 -209 -12 -214 -5 -6 -21 3 -41 25 -18 20 -39 38 -47 40
-11 4 -8 15 14 47 48 73 44 156 -10 237 l-25 35 24 -6 c16 -4 32 2 52 20 16
14 33 24 38 23 4 -2 8 -95 7 -207z"/>
<path d="M797 1490 c-27 -5 -50 -10 -52 -12 -2 -2 3 -28 11 -58 10 -38 14
-114 14 -253 l0 -198 66 3 66 3 -1 166 c-1 91 1 173 5 182 11 31 62 49 122 45
52 -3 56 -1 63 22 4 14 7 42 8 64 l1 38 -64 -4 c-48 -3 -74 -11 -104 -30 -44
-30 -52 -28 -52 14 0 31 -2 31 -83 18z m58 -60 c28 -31 48 -32 106 -5 66 30
89 32 89 5 0 -17 -7 -20 -47 -20 -60 0 -109 -29 -129 -75 -10 -24 -14 -75 -14
-175 0 -141 0 -141 -22 -138 -23 3 -23 5 -29 208 -3 113 -4 208 -2 213 7 13
30 7 48 -13z"/>
<path d="M1705 1480 c-2 -3 -1 -119 2 -257 l6 -253 63 0 64 0 2 210 c1 116 2
231 3 256 l0 46 -68 2 c-38 0 -70 -1 -72 -4z m93 -57 c5 -10 6 -103 3 -208 -6
-184 -7 -190 -27 -193 -21 -3 -21 0 -26 200 -3 112 -3 206 -1 211 8 14 42 7
51 -10z"/>
<path d="M2743 1233 c-24 -2 -43 -9 -43 -14 0 -13 100 -7 101 6 1 12 -5 12
-58 8z"/>
<path d="M1188 1181 c-25 -16 -48 -36 -51 -46 -22 -56 5 -149 83 -284 113
-198 128 -241 91 -261 -30 -16 -157 -12 -191 5 -38 20 -38 10 -1 -64 29 -57
52 -75 106 -83 17 -3 19 2 16 40 -1 23 0 42 4 42 3 0 19 -10 35 -22 48 -35 76
-18 126 76 l42 79 -26 61 c-14 34 -48 106 -75 161 -56 113 -79 173 -72 185 3
5 23 6 45 3 87 -12 126 36 75 91 -51 55 -135 62 -207 17z m165 -39 c28 -29 13
-46 -34 -38 -32 5 -40 2 -58 -19 l-19 -26 28 -82 c15 -45 51 -131 79 -190 28
-59 51 -117 51 -128 0 -23 -43 -101 -66 -120 -30 -24 -26 2 4 31 19 18 32 40
32 55 0 14 -28 78 -62 143 -143 272 -160 317 -132 359 28 44 138 53 177 15z"/>
<path d="M2605 929 c-22 -5 -51 -11 -64 -15 l-24 -5 22 -15 c28 -20 27 -33 -8
-102 -16 -31 -45 -100 -65 -152 -20 -52 -48 -112 -62 -134 -25 -37 -28 -38
-70 -33 -38 4 -44 2 -44 -15 0 -10 7 -34 14 -53 17 -39 43 -46 68 -17 19 21
92 151 101 177 17 56 76 190 85 193 17 5 27 -84 27 -245 l0 -153 42 0 42 0 6
55 c4 30 5 103 1 162 -3 59 -8 162 -12 228 -3 66 -9 123 -13 126 -3 3 -24 2
-46 -2z m15 -131 l0 -73 -21 34 c-19 31 -20 39 -8 73 7 21 16 38 21 38 4 0 8
-33 8 -72z"/>
<path d="M1645 925 c-5 -2 -36 -6 -69 -10 -55 -6 -57 -8 -37 -21 12 -9 21 -20
21 -27 0 -27 -175 -359 -199 -378 -24 -19 -41 -20 -87 -2 -15 6 -16 1 -12 -42
10 -86 54 -86 114 0 24 33 71 117 105 188 35 70 69 127 76 127 23 0 17 -249
-10 -394 -1 -7 14 -11 38 -11 37 0 41 2 52 38 11 32 10 43 -2 67 -21 41 -19
132 4 188 15 35 21 76 23 165 2 64 1 117 -2 116 -3 0 -9 -2 -15 -4z m-26 -142
c-1 -49 -4 -76 -6 -61 -2 14 -11 32 -19 38 -8 7 -14 18 -14 25 0 16 29 85 35
85 3 0 4 -39 4 -87z"/>
<path d="M2074 878 c-68 -72 -100 -144 -121 -268 -17 -96 -20 -105 -48 -122
-42 -26 -72 -22 -106 11 -25 25 -29 37 -29 83 0 103 44 209 124 297 66 72 -30
4 -138 -98 -104 -99 -145 -233 -99 -328 17 -37 76 -72 120 -73 28 0 102 28
125 48 19 16 20 15 32 -40 12 -55 77 -72 204 -53 55 8 117 38 131 62 5 9 7 42
4 73 l-6 55 21 -19 c17 -15 23 -16 27 -5 10 29 10 399 0 396 -10 -3 -30 -77
-80 -301 -31 -134 -57 -176 -113 -176 -55 0 -62 20 -62 186 0 161 13 232 50
284 36 51 17 44 -36 -12z m-341 -261 c-6 -78 5 -114 46 -151 30 -27 26 -36
-15 -36 -26 0 -43 8 -66 30 -28 29 -30 35 -26 93 4 60 36 137 58 137 5 0 6
-33 3 -73z m286 -79 c1 -87 2 -89 37 -128 l36 -40 -43 0 c-52 0 -59 4 -86 52
-19 32 -20 38 -7 57 8 11 22 57 31 102 20 100 31 85 32 -43z"/>
<path d="M180 755 c0 -13 70 -15 540 -15 490 0 602 5 509 24 -17 3 -260 6
-540 6 -443 0 -509 -2 -509 -15z"/>
<path d="M2680 750 c0 -6 28 -10 65 -10 37 0 65 4 65 10 0 6 -28 10 -65 10
-37 0 -65 -4 -65 -10z"/>
<path d="M1483 568 c-27 -13 -28 -18 -10 -42 13 -17 15 -17 46 -1 32 16 32 17
15 36 -19 22 -21 22 -51 7z"/>
<path d="M2502 564 c-22 -15 -22 -17 -6 -35 21 -23 23 -23 54 1 25 19 25 19 5
34 -25 19 -26 19 -53 0z"/>
<path d="M175 540 c4 -6 170 -10 466 -10 299 0 459 3 459 10 0 7 -162 10 -466
10 -307 0 -463 -3 -459 -10z"/>
<path d="M2690 540 c0 -5 23 -10 50 -10 28 0 53 0 57 -1 4 0 9 4 11 10 2 7
-18 11 -57 11 -34 0 -61 -4 -61 -10z"/>
</g>
</svg>
